<svg width="189" height="47" fill="none" xmlns="http://www.w3.org/2000/svg"><g clip-path="url(#clip0)"><path d="M151.08 18.567c-.779-.76-1.168-1.803-1.168-2.846a118.157 118.157 0 00-19.078.664c-.486.095-.876.38-.973.664-.097.38.292.569.389.569 2.823 1.233 4.283 1.898 6.911 3.415.195.095.487.19.779.19 1.362-.095 2.628-.19 3.893-.19 4.088-.095 8.176 0 12.069.475l-2.822-2.941z" fill="#4FD6F6"/><path d="M157.601 25.208l-1.168-1.139a78.074 78.074 0 00-13.335-.854c-.389 0-.778.19-.876.475-.097.284.098.569.292.664 2.336 1.613 3.504 2.466 5.743 4.27.195.094.292.189.487.189 2.628.19 4.769.285 6.716.664l2.141-4.27z" fill="#9AE8FA"/><path d="M154 11.641h.681l9.539 1.139 1.46-2.847c-16.742-3.225-32.412-2.656-49.056 1.708-.584.19-1.071.57-1.071.949 0 .284.389.38.487.474 3.212.76 4.866 1.233 7.884 2.277.292.095.584.095.973 0 5.743-1.043 11.096-1.613 16.547-1.802 3.017-.095 6.034 0 9.052.19A4.427 4.427 0 01154 11.64z" fill="#03C5F2"/><path d="M188.066 19.23c-.194-.758-.778-1.327-1.557-1.422l-11.096-1.328-1.752-9.677c-.097-.76-.779-1.329-1.557-1.423a1.993 1.993 0 00-1.947.948l-4.672 9.013-11.096-1.328c-.779-.095-1.557.284-1.849.949-.39.664-.195 1.518.292 1.992l7.689 7.78-5.645 11.194s0 .095-.098.095c0 0 0 .095-.097.095v.854s0 .095.097.095c0 .095 0 .095.098.19 0 0 0 .094.097.094l.097.095.098.095.097.095c.097.095.195.095.195.19h.097c.097 0 .097.095.195.095h.097c.097 0 .097 0 .195.094h.876c.097 0 .194 0 .194-.094h.098c.097 0 .194-.095.292-.095l10.512-6.072 8.565 8.918c.292.285.681.474 1.071.57.389 0 .681 0 1.07-.19.682-.38 1.168-1.14.974-1.898L177.36 26.44l9.928-5.692c.584 0 .973-.76.778-1.518z" fill="url(#paint0_linear)"/></g><path d="M92.639 15.96c1.224 1.043 1.875 2.37 1.953 3.985.078 1.615-.443 2.982-1.563 4.102l-7.538 7.812c-.26.26-.56.391-.899.391-.338 0-.638-.13-.898-.39l-7.54-7.813c-1.12-1.12-1.64-2.487-1.562-4.102.078-1.614.73-2.942 1.953-3.984 1.068-.912 2.292-1.302 3.672-1.172 1.406.104 2.604.664 3.594 1.68l.781.781.781-.781c.99-1.016 2.175-1.576 3.555-1.68 1.406-.13 2.643.26 3.71 1.172z" fill="#EB5757"/><path d="M6.506 25.659a2.169 2.169 0 010-4.337h16.811a9.855 9.855 0 00-.243 2.168c0 .747.087 1.475.243 2.169H6.506z" fill="#A735DF"/><path d="M2.169 18.25a2.169 2.169 0 010-4.338h30.464-.523c-.07 0-.14 0-.207.017h-.034c-.07 0-.14.017-.226.017h-.034c-.07 0-.12.017-.19.017h-.034c-.07.017-.14.017-.208.034h-.052c-.14.016-.278.053-.417.07l-.053.016c-.07.017-.12.034-.19.034l-.054.017-.156.034-.053.017c-.07.016-.12.033-.19.053l-.035.016a4.008 4.008 0 00-.156.053l-.07.017-.157.053-.07.017a.765.765 0 00-.19.07l-.034.017-.14.053-.07.034c-.052.017-.103.053-.156.07l-.07.033-.12.053-.07.034c-.053.017-.104.053-.157.07l-.07.034-.103.053-.12.07-.104.053-.087.053-.087.053-.12.07-.07.052-.087.053-.12.07-.087.053-.053.034c-.104.07-.227.157-.33.226l-.017.017-.21.157-.017.017c-.103.087-.226.173-.33.26l-.017.017a9.458 9.458 0 00-1.821 2.065H2.222l-.053.015z" fill="#6433F9"/><path d="M10.826 28.729H24.62c1.718 2.602 4.667 4.337 8.014 4.337H10.826a2.169 2.169 0 010-4.337z" fill="#E63060"/><path d="M42.748 23.49c0-5.585-4.527-10.115-10.115-10.115A10.114 10.114 0 0022.517 23.49a10.114 10.114 0 0010.116 10.116c5.587 0 10.115-4.53 10.115-10.116zm-18.703 0a8.584 8.584 0 018.588-8.587 8.584 8.584 0 018.587 8.587 8.584 8.584 0 01-8.587 8.588 8.586 8.586 0 01-8.588-8.588z" fill="#210F59"/><path d="M51.456 10.201L34.698.573c-1.318-.764-2.829-.764-4.164 0L13.775 10.2c-.156.087-.313.19-.45.294h7.997L32.546 4.06c.017 0 .07-.034.087-.034.017 0 .07.017.087.034l16.758 9.628c.017 0 .053.034.07.053.017.034.017.087.017.104v19.31c0 .034 0 .087-.017.104 0 .017-.053.033-.07.053L32.72 42.94c-.017 0-.07.033-.087.033a.187.187 0 01-.087-.033l-11.224-6.437h-8c.14.104 17.21 9.923 17.21 9.923 1.318.764 2.829.764 4.164 0l16.758-9.629c1.335-.78 2.099-2.098 2.099-3.643v-19.31c.002-1.545-.76-2.882-2.096-3.644z" fill="#210F59"/><path d="M32.633 27.497a4.007 4.007 0 100-8.014 4.007 4.007 0 000 8.014z" fill="#210F59"/><defs><linearGradient id="paint0_linear" x1="152.642" y1="24.362" x2="188.272" y2="22.904" gradientUnits="userSpaceOnUse"><stop stop-color="#FF8C00"/><stop offset=".7" stop-color="#FFD200"/></linearGradient><clipPath id="clip0"><path fill="#fff" d="M115.553 5h73v37h-73z"/></clipPath></defs></svg>