<svg width="30" height="26" viewBox="0 0 57 50" fill="none" xmlns="http://www.w3.org/2000/svg"><path d="M12.125 30.042h14.422c1.797 2.72 4.881 4.535 8.38 4.535H12.126a2.268 2.268 0 010-4.535z" fill="#E63060"/><path d="M7.607 26.831a2.268 2.268 0 010-4.535h17.58a10.303 10.303 0 00-.255 2.268c0 .78.09 1.542.255 2.267H7.607z" fill="#A735DF"/><path d="M3.071 19.083a2.268 2.268 0 010-4.535h31.857-.548c-.073 0-.146 0-.217.018h-.035c-.073 0-.146.017-.237.017h-.035c-.073 0-.126.018-.2.018h-.034c-.073.018-.146.018-.217.035h-.056c-.146.018-.29.056-.435.073l-.056.018c-.073.018-.126.035-.199.035l-.055.018-.164.035-.056.018c-.073.017-.125.035-.199.055l-.035.018a4.447 4.447 0 00-.164.055l-.073.018-.164.055-.073.018a.791.791 0 00-.199.073l-.035.018-.146.055-.073.035c-.056.018-.108.056-.164.073l-.073.036-.126.055-.073.035c-.055.018-.108.056-.164.073l-.073.036-.108.055-.126.073-.109.056-.09.055-.091.056-.126.073-.073.055-.09.056-.127.073-.09.055-.056.035-.345.237-.018.018c-.073.055-.146.108-.219.164l-.018.017c-.108.09-.236.182-.345.272l-.017.018a9.89 9.89 0 00-1.905 2.16H3.127l-.056.014z" fill="#6433F9"/><path d="M45.505 24.564c0-5.84-4.734-10.578-10.577-10.578S24.35 18.721 24.35 24.564c0 5.843 4.735 10.577 10.578 10.577 5.843 0 10.578-4.737 10.578-10.577zm-19.557 0a8.976 8.976 0 018.98-8.98 8.976 8.976 0 018.98 8.98 8.976 8.976 0 01-8.98 8.98 8.978 8.978 0 01-8.98-8.98z" fill="#210F59"/><path d="M54.612 10.668L37.087.599C35.71-.2 34.13-.2 32.733.6L15.21 10.668c-.164.09-.328.199-.471.307H23.1l11.736-6.73c.018 0 .073-.035.09-.035a.19.19 0 01.092.035l17.524 10.069c.018 0 .055.035.073.055.018.035.018.09.018.108V34.67c0 .035 0 .09-.018.109 0 .017-.055.035-.073.055L35.019 44.903c-.018 0-.073.035-.091.035a.195.195 0 01-.09-.035L23.1 38.173h-8.365c.146.108 17.996 10.376 17.996 10.376 1.378.798 2.958.798 4.354 0L54.609 38.48c1.396-.816 2.195-2.195 2.195-3.81V14.477c.002-1.615-.794-3.013-2.192-3.81z" fill="#210F59"/><path d="M34.928 28.754a4.19 4.19 0 100-8.38 4.19 4.19 0 000 8.38z" fill="#210F59"/></svg>